<svg width="88" height="87" viewBox="0 0 88 87" fill="none" xmlns="http://www.w3.org/2000/svg">
<path fill-rule="evenodd" clip-rule="evenodd" d="M44.2098 86C67.9337 86 87.1657 66.9721 87.1657 43.5C87.1657 20.0279 67.9337 1 44.2098 1C20.4859 1 1.25391 20.0279 1.25391 43.5C1.25391 66.9721 20.4859 86 44.2098 86Z" fill="white" stroke="#E3E9EE"/>
<rect width="42.9559" height="28.8393" transform="translate(22.7266 29.8357)" fill="white"/>
<path fill-rule="evenodd" clip-rule="evenodd" d="M54.7911 36.9766C56.7672 36.9766 58.3691 35.378 58.3691 33.4061C58.3691 31.4342 56.7672 29.8357 54.7911 29.8357C52.815 29.8357 51.2131 31.4342 51.2131 33.4061C51.2131 35.378 52.815 36.9766 54.7911 36.9766ZM44.8875 58.5972H23.3454C22.5585 58.5972 22.0799 57.7304 22.4991 57.0645L37.1692 33.7601C37.5551 33.147 38.4419 33.1313 38.8438 33.734C40.7608 36.6085 45.5608 43.8162 49.6451 50.0351L54.0416 43.0101C54.4205 42.4046 55.2982 42.3746 55.7138 42.9531L65.8328 57.0351C66.3035 57.6902 65.8365 58.6018 65.0235 58.6097L55.2271 58.705L44.8875 58.5972Z" fill="#94A2AB"/>
</svg>
